<svg xmlns="http://www.w3.org/2000/svg" viewBox="0 0 3000 524">
  <!-- Background -->
  <rect width="3000" height="524" fill="#000000"/>
  
  <!-- Left side modern pattern -->
  <path d="M0 0 L800 0 Q 700 262 800 524 L0 524 Z" fill="#2563eb" fill-opacity="0.8"/>
  <path d="M100 0 L700 0 Q 600 262 700 524 L100 524 Z" fill="white" fill-opacity="0.1"/>
  <path d="M200 0 L600 0 Q 500 262 600 524 L200 524 Z" fill="#2563eb" fill-opacity="0.3"/>
  
  <!-- Right side modern pattern -->
  <path d="M2200 0 L3000 0 L3000 524 L2200 524 Q 2300 262 2200 0 Z" fill="#2563eb" fill-opacity="0.8"/>
  <path d="M2300 0 L3000 0 L3000 524 L2300 524 Q 2400 262 2300 0 Z" fill="white" fill-opacity="0.1"/>
  <path d="M2400 0 L3000 0 L3000 524 L2400 524 Q 2500 262 2400 0 Z" fill="#2563eb" fill-opacity="0.3"/>

  <!-- Content area -->
  <g transform="translate(925,0)">
    <text x="575" y="200" font-family="Arial, sans-serif" font-size="72" font-weight="900" fill="white" text-anchor="middle">
      Monitor every step
    </text>
    <text x="575" y="290" font-family="Arial, sans-serif" font-size="72" font-weight="900" fill="white" text-anchor="middle">
      during development
    </text>

    <g transform="translate(325,380)">
      <rect width="500" height="80" rx="40" fill="#2563eb"/>
      <text x="250" y="50" font-family="Arial, sans-serif" font-size="32" fill="white" text-anchor="middle" font-weight="bold">
        START MONITORING NOW
      </text>
    </g>
  </g>

  <!-- Modern accent elements -->
  <path d="M300 150 Q 400 200 500 150" stroke="white" stroke-width="2" fill="none" stroke-opacity="0.3"/>
  <path d="M2500 374 Q 2600 324 2700 374" stroke="white" stroke-width="2" fill="none" stroke-opacity="0.3"/>
</svg>